<?xml version="1.0" encoding="UTF-8"?>
<svg version="1.1" xmlns="http://www.w3.org/2000/svg" width="512" height="512">
<path d="M0 0 C-0.875 5.75 -0.875 5.75 -2 8 C-2.66 8 -3.32 8 -4 8 C-4.37125 9.2684375 -4.37125 9.2684375 -4.75 10.5625 C-8.22222222 20.11111111 -8.22222222 20.11111111 -12 22 C-12.268125 22.845625 -12.53625 23.69125 -12.8125 24.5625 C-14.05560817 28.16097102 -15.70110003 30.91203602 -17.78125 34.0703125 C-18.99637889 35.99426658 -20.01590902 37.94981046 -21 40 C-21.66 40 -22.32 40 -23 40 C-23.37125 41.2684375 -23.37125 41.2684375 -23.75 42.5625 C-27.22222222 52.11111111 -27.22222222 52.11111111 -31 54 C-31.309375 54.94875 -31.61875 55.8975 -31.9375 56.875 C-33.52713178 61.5503876 -33.52713178 61.5503876 -36 63 C-39.47342175 62.80339122 -42.36262772 62.25073804 -45.6015625 60.9765625 C-57.80832205 57.46887297 -71.89240624 59.06145213 -83 65 C-84.34578125 65.82564453 -84.34578125 65.82564453 -85.71875 66.66796875 C-88 68 -88 68 -90 68 C-90 68.66 -90 69.32 -90 70 C-95.11111111 74.55555556 -95.11111111 74.55555556 -98 76 C-98.71886194 77.30593252 -99.37413787 78.64703333 -100 80 C-100.474375 80.90234375 -100.94875 81.8046875 -101.4375 82.734375 C-108.07959593 95.55362014 -110.44751538 107.45688328 -106.375 121.8125 C-103.13285369 131.08390085 -98.43715273 138.57099464 -91 145 C-90.50242187 145.44988281 -90.00484375 145.89976562 -89.4921875 146.36328125 C-80.24728348 153.86605511 -67.53802859 156.4225674 -55.921875 155.84765625 C-42.60740346 154.41651136 -30.88134931 147.95979887 -22 138 C-14.69140026 128.42130489 -11.97845418 119.5388412 -10.52734375 107.72265625 C-10 105 -10 105 -8 103 C-5.0640564 102.75949097 -5.0640564 102.75949097 -1.25537109 102.77294922 C-0.56257553 102.77265717 0.13022003 102.77236511 0.8440094 102.77206421 C3.13832034 102.77345969 5.43230816 102.78903081 7.7265625 102.8046875 C9.31553978 102.80841686 10.90451936 102.8112642 12.49349976 102.81326294 C16.67914154 102.82090547 20.8646449 102.84055919 25.05023193 102.8626709 C29.31992724 102.88311604 33.58964487 102.8922618 37.859375 102.90234375 C46.23964691 102.92380457 54.61980625 102.95794789 63 103 C63.01113525 105.06973052 63.01905714 107.13947849 63.02563477 109.20922852 C63.03277245 110.93811058 63.03277245 110.93811058 63.04005432 112.70191956 C62.98962217 116.85451269 62.60524839 120.84377081 61.9375 124.9375 C61.81318604 125.71528809 61.68887207 126.49307617 61.56079102 127.29443359 C59.81105594 137.23214461 57.1411326 147.77315808 53 157 C52.34 157.33 51.68 157.66 51 158 C50.34227572 161.02934491 50.34227572 161.02934491 50 164 C49.34 164 48.68 164 48 164 C47.71125 164.9075 47.4225 165.815 47.125 166.75 C46.23468224 169.32202908 45.28505587 171.61346766 44 174 C43.34 174 42.68 174 42 174 C41.773125 174.680625 41.54625 175.36125 41.3125 176.0625 C39.68773854 179.6988709 37.67196743 183.02829263 35 186 C34.34 186 33.68 186 33 186 C32.731875 186.5775 32.46375 187.155 32.1875 187.75 C30.97070811 190.05550043 29.69666121 192.02056192 28 194 C27.34 194 26.68 194 26 194 C26 194.66 26 195.32 26 196 C21.52941176 200 21.52941176 200 19 200 C19 200.66 19 201.32 19 202 C14.90161457 205.31941149 10.4349971 208.15227676 6 211 C5.39027344 211.39203613 4.78054687 211.78407227 4.15234375 212.18798828 C-24.25688341 230.09454733 -58.48488098 234.24988718 -91 227 C-100.72323429 224.70216783 -109.23514318 220.68595018 -118 216 C-118.82371094 215.5771875 -119.64742187 215.154375 -120.49609375 214.71875 C-126.75627621 211.41569473 -132.37866053 207.28414205 -138 203 C-138.93328125 202.30003906 -139.8665625 201.60007812 -140.828125 200.87890625 C-141.54484375 200.25886719 -142.2615625 199.63882813 -143 199 C-143 198.34 -143 197.68 -143 197 C-143.66 197 -144.32 197 -145 197 C-145 196.34 -145 195.68 -145 195 C-145.66 195 -146.32 195 -147 195 C-147 194.34 -147 193.68 -147 193 C-147.66 193 -148.32 193 -149 193 C-149 192.34 -149 191.68 -149 191 C-149.66 191 -150.32 191 -151 191 C-152.23339844 189.68994141 -152.23339844 189.68994141 -153.609375 187.8515625 C-154.11388184 187.1810083 -154.61838867 186.5104541 -155.13818359 185.81958008 C-155.67008301 185.09536865 -156.20198242 184.37115723 -156.75 183.625 C-157.29350098 182.88983154 -157.83700195 182.15466309 -158.39697266 181.3972168 C-174.67776835 159.1608073 -182.15288524 135.63103147 -182.29516602 108.24633789 C-182.30662863 106.71955048 -182.32698892 105.19280131 -182.35668945 103.66625977 C-182.57394682 92.4404869 -181.21914442 82.78202173 -178 72 C-177.64941528 70.74352661 -177.64941528 70.74352661 -177.29174805 69.46166992 C-172.55802526 52.8669743 -162.8415417 37.77571569 -151.140625 25.31640625 C-149.57305855 23.62011628 -148.08102535 21.8531804 -146.63671875 20.05078125 C-143.94002305 16.79274732 -140.89739725 14.20972163 -137.5625 11.625 C-136.95414307 11.15167236 -136.34578613 10.67834473 -135.71899414 10.19067383 C-98.51191795 -18.11770599 -40.73160794 -26.30753752 0 0 Z " fill="#8ADB66" transform="translate(182,265)"/>
<path d="M0 0 C4.01450443 1.33816814 4.46669165 3.02891376 6.5546875 6.66796875 C6.89281967 7.25108322 7.23095184 7.83419769 7.57933044 8.4349823 C8.68620327 10.34782328 9.78048672 12.26756493 10.875 14.1875 C11.63600385 15.50722666 12.39797378 16.82639669 13.16088867 18.14501953 C14.70456652 20.81430473 16.24438552 23.48575896 17.78173828 26.15869141 C20.91216428 31.59159356 24.11100198 36.98376722 27.3125 42.375 C28.78681968 44.86105842 30.25987546 47.34776621 31.72607422 49.83862305 C32.55487052 51.24478128 33.38953642 52.64750194 34.23095703 54.04614258 C36.31605559 57.56583669 37.50298207 59.85039788 37 64 C35.515 64.495 35.515 64.495 34 65 C34 65.66 34 66.32 34 67 C33.34 67 32.68 67 32 67 C32 67.66 32 68.32 32 69 C31.21625 69.2475 30.4325 69.495 29.625 69.75 C26.50755326 71.23449845 26.3985779 71.97154093 25 75 C24.04513357 76.48140707 23.08649412 77.96038597 22.125 79.4375 C14.87485996 91.57437659 13.18573096 104.3344884 16.0625 118.125 C19.87539067 131.53277049 28.11810183 141.27051815 39.84375 148.421875 C53.21214347 155.10607174 66.94705205 155.65916529 81 151 C93.26849614 146.35146135 102.70558929 137.23781596 108.21484375 125.38671875 C112.83598722 114.28610722 114.17248692 100.89557667 110.046875 89.375 C106.53453154 81.40669843 102.93669234 74.72066886 95.875 69.3984375 C95.1325 68.81320312 94.39 68.22796875 93.625 67.625 C92.91601562 67.10164063 92.20703125 66.57828125 91.4765625 66.0390625 C90 64 90 64 90.20654297 60.75024414 C91.02648762 56.8748073 92.1926303 54.34107644 94.21875 50.95703125 C94.54895645 50.39849457 94.8791629 49.83995789 95.21937561 49.26449585 C96.30180832 47.44027334 97.40054339 45.62650375 98.5 43.8125 C99.25865097 42.54197133 100.01636827 41.27088473 100.77319336 39.99926758 C102.75932033 36.67032113 104.76074282 33.35087962 106.76824951 30.03479004 C108.00365264 27.99396602 109.23671209 25.95174226 110.46923828 23.90917969 C115.28931639 15.92504498 120.1333409 7.95584161 125 0 C150.42098132 12.04007305 169.42977981 36.98987714 179 63 C190.69452184 96.58465805 187.79674416 130.26130648 172.75 162.125 C163.47660144 180.0210323 150.25428735 194.26940287 134 206 C133.10796875 206.64710938 132.2159375 207.29421875 131.296875 207.9609375 C104.3670991 226.21701257 69.51169411 231.45508633 37.8125 225.5 C17.39535895 221.20753346 -1.25663706 211.59530478 -17 198 C-17.75667969 197.37609375 -18.51335937 196.7521875 -19.29296875 196.109375 C-41.36622046 177.41739593 -55.28924677 148.36625759 -58.71875 119.875 C-61.06052329 87.61056802 -54.55891859 54.42442292 -32.98828125 29.22265625 C-32.00408203 28.12244141 -32.00408203 28.12244141 -31 27 C-30.29230469 26.17371094 -29.58460938 25.34742188 -28.85546875 24.49609375 C-20.59317509 15.01833132 -11.25389373 5.85819126 0 0 Z " fill="#118DFF" transform="translate(326,266)"/>
<path d="M0 0 C1.22356201 0.00491455 2.44712402 0.0098291 3.70776367 0.01489258 C36.40945985 0.43627834 65.68364562 14.28265922 88.9453125 36.9375 C102.25138631 50.95267492 111.99899568 68.05823739 117.625 86.5 C117.98319824 87.67405396 117.98319824 87.67405396 118.34863281 88.87182617 C127.53934673 120.99609794 122.45693203 154.0281637 106.91259766 183.0871582 C98.37848322 198.34070197 80.68584601 221.89761541 63.046875 226.94262695 C62.45390625 227.06468506 61.8609375 227.18674316 61.25 227.3125 C60.93998047 226.78744873 60.62996094 226.26239746 60.31054688 225.72143555 C53.83110733 214.74906585 47.34624801 203.77991121 40.8515625 192.81655884 C39.83706338 191.10396586 38.82282532 189.39121824 37.80859375 187.6784668 C37.17179688 186.6037915 36.535 185.52911621 35.87890625 184.421875 C34.96842529 182.8740332 34.96842529 182.8740332 34.03955078 181.29492188 C32.86254869 179.33335878 31.65312857 177.39082537 30.40966797 175.47070312 C29.85037598 174.59865234 29.29108398 173.72660156 28.71484375 172.828125 C27.96448853 171.69552246 27.96448853 171.69552246 27.19897461 170.54003906 C25.9847966 167.68998499 26.28226762 166.21902269 27.25 163.3125 C29.2890625 161.2421875 29.2890625 161.2421875 31.875 159.1875 C40.77785746 151.49288748 47.20602407 141.10577091 48.47314453 129.21923828 C49.52159957 114.09716426 46.27246355 100.99478359 36.4375 89.125 C26.68410029 78.7423487 14.24831154 73.52655166 0.125 73.0625 C-13.69163691 73.2497173 -25.73213301 78.70754815 -35.75 88.1171875 C-44.77334927 98.02172323 -49.11077291 110.8438976 -48.96484375 124.05859375 C-48.02010122 138.36714886 -41.86999958 149.43510315 -31.75 159.3125 C-30.8528125 159.98539063 -29.955625 160.65828125 -29.03125 161.3515625 C-26.53688891 163.49568795 -26.08484344 164.1320303 -25.75 167.3125 C-26.54760742 169.37695313 -26.54760742 169.37695313 -27.85546875 171.59375 C-28.33830322 172.42543701 -28.8211377 173.25712402 -29.31860352 174.11401367 C-29.85283936 175.00451416 -30.3870752 175.89501465 -30.9375 176.8125 C-31.48269287 177.74231689 -32.02788574 178.67213379 -32.58959961 179.63012695 C-34.29656335 182.5322841 -36.02142635 185.42317191 -37.75 188.3125 C-38.7788502 190.0454516 -39.80750415 191.77851974 -40.8359375 193.51171875 C-43.28946333 197.63269709 -45.76617514 201.73914304 -48.25341797 205.83984375 C-49.80254651 208.39931746 -51.34113408 210.96493984 -52.87890625 213.53125 C-53.87725669 215.18770947 -54.8759416 216.84396742 -55.875 218.5 C-56.56734741 219.659552 -56.56734741 219.659552 -57.27368164 220.8425293 C-60.52200599 226.19850299 -60.52200599 226.19850299 -62.75 227.3125 C-88.53589086 214.30586017 -107.36763629 188.2911306 -116.6875 161.5 C-126.95250914 127.87574744 -124.27982346 93.51030824 -107.88867188 62.34228516 C-102.4848225 52.70943701 -95.35444755 44.27001118 -87.75 36.3125 C-87.09 35.57773437 -86.43 34.84296875 -85.75 34.0859375 C-64.08769936 10.86460765 -31.1049756 -0.14909644 0 0 Z " fill="#FF2943" transform="translate(253.75,19.6875)"/>
</svg>
