<?xml version="1.0" encoding="UTF-8"?>
<svg version="1.1" xmlns="http://www.w3.org/2000/svg" width="128" height="130">
<path d="M0 0 C1.58494263 0.01135986 1.58494263 0.01135986 3.2019043 0.02294922 C11.19012401 0.19135517 17.85299592 1.08368831 25.1875 4.4375 C26.13367188 4.86160156 27.07984375 5.28570313 28.0546875 5.72265625 C35.12171225 9.23659238 40.49615807 14.04465502 46.1875 19.4375 C47.36517073 20.42846683 48.5509311 21.41003503 49.75 22.375 C52.1875 24.4375 52.1875 24.4375 53.1875 26.4375 C55.07850098 29.39954527 55.07850098 29.39954527 57.1484375 31.74609375 C67.46333512 45.3609682 66.8444208 63.6712181 65.30859375 79.75 C64.97020718 82.40876493 64.97020718 82.40876493 66.1875 84.4375 C66.5625 87.75 66.5625 87.75 66.1875 91.4375 C62.95269288 95.24153628 59.70910406 97.47411936 55.2421875 99.63671875 C54.09234375 100.20100586 52.9425 100.76529297 51.7578125 101.34667969 C51.15485352 101.6368396 50.55189453 101.92699951 49.93066406 102.22595215 C47.39228013 103.44754112 44.86480678 104.69093849 42.33673096 105.9336853 C41.06735344 106.55764864 39.79745672 107.18055685 38.52703857 107.80239868 C33.36112556 110.3351793 28.2635719 112.98029821 23.1875 115.6875 C21.6994753 116.47184108 20.21119539 117.25569817 18.72265625 118.0390625 C16.34510576 119.29194735 13.97319668 120.5533155 11.60888672 121.83105469 C8.95728871 123.26066238 6.29265156 124.66312508 3.625 126.0625 C2.82771484 126.50110352 2.03042969 126.93970703 1.20898438 127.39160156 C-4.38900998 130.28880917 -9.4985506 131.51224677 -15.8125 130.4375 C-17.8125 128.4375 -17.8125 128.4375 -18.18359375 126.43359375 C-18.61954478 124.28677386 -18.61954478 124.28677386 -20.59765625 123.34765625 C-21.34917969 123.06792969 -22.10070313 122.78820312 -22.875 122.5 C-28.91962425 120.05130054 -34.23772136 117.12149086 -38.8125 112.4375 C-39.87047153 111.57773073 -40.93324322 110.72384447 -42 109.875 C-47.93920718 104.82035559 -53.13331231 98.80819102 -55.8125 91.4375 C-56.79980629 89.28933749 -57.80127582 87.14871985 -58.8125 85.01171875 C-64.00508992 71.64485642 -64.15643551 53.6113454 -59.07421875 40.18359375 C-56.88767919 35.42465471 -54.60469983 30.87376883 -51.8125 26.4375 C-51.33425781 25.66792969 -50.85601562 24.89835937 -50.36328125 24.10546875 C-43.71205297 14.53909256 -32.68520786 7.34190214 -21.8125 3.4375 C-20.72980835 3.04473877 -20.72980835 3.04473877 -19.62524414 2.64404297 C-13.01066717 0.44815524 -6.94406159 -0.06982298 0 0 Z " fill="#26BA90" transform="translate(61.8125,-0.4375)"/>
<path d="M0 0 C1.2375 0.04125 2.475 0.0825 3.75 0.125 C3.75 0.8675 3.75 1.61 3.75 2.375 C4.4412817 5.15611132 4.4412817 5.15611132 6.31640625 6.1015625 C6.97511719 6.39804687 7.63382813 6.69453125 8.3125 7 C17.06679157 10.94647849 22.71287992 17.48504875 26.75 26.125 C30.77349143 37.90611361 29.86013569 51.75964804 24.75 63.125 C23.265 63.62 23.265 63.62 21.75 64.125 C21.42 63.465 21.09 62.805 20.75 62.125 C20.20666016 63.29869141 20.20666016 63.29869141 19.65234375 64.49609375 C17.18207466 67.90983317 15.35490837 68.20098717 11.3125 69.1875 C6.57993897 70.35583418 3.93139415 71.36517055 0.75 75.125 C-2.25 74.125 -2.25 74.125 -3.4375 72.25 C-4.25 70.125 -4.25 70.125 -4.25 67.125 C-7.66333172 68.05590865 -9.84402625 68.71902625 -12.375 71.25 C-12.99375 71.86875 -13.6125 72.4875 -14.25 73.125 C-15.57 73.125 -16.89 73.125 -18.25 73.125 C-19.57 70.155 -20.89 67.185 -22.25 64.125 C-26.12431887 64.71682794 -26.12431887 64.71682794 -27.75 66.6875 C-29.25 68.125 -29.25 68.125 -33.25 68.125 C-34.735 64.66 -34.735 64.66 -36.25 61.125 C-36.91 61.125 -37.57 61.125 -38.25 61.125 C-38.745 63.6 -38.745 63.6 -39.25 66.125 C-40.57 66.125 -41.89 66.125 -43.25 66.125 C-45.19456928 61.99081409 -45.62028021 58.355003 -45.875 53.8125 C-45.94976562 52.55824219 -46.02453125 51.30398437 -46.1015625 50.01171875 C-46.17503906 48.58279297 -46.17503906 48.58279297 -46.25 47.125 C-46.58 47.785 -46.91 48.445 -47.25 49.125 C-47.91 49.125 -48.57 49.125 -49.25 49.125 C-49.95794968 36.93253336 -48.32490042 26.73465861 -40.234375 17.2265625 C-31.05658282 7.50677472 -24.38140209 4.29182135 -11.203125 2.65234375 C-7.07076037 1.91442149 -4.29865949 -0.14328865 0 0 Z " fill="#090909" transform="translate(71.25,18.875)"/>
<path d="M0 0 C1 3 1 3 1 6 C2.98 5.34 4.96 4.68 7 4 C7.33 6.31 7.66 8.62 8 11 C8.99 11.33 9.98 11.66 11 12 C11.66 9.03 12.32 6.06 13 3 C19.79616131 3 24.01452364 8.30407227 29 12.5625 C31.33631035 15.40987824 31.74651949 17.36677935 32 21 C31.50371094 20.69964844 31.00742188 20.39929688 30.49609375 20.08984375 C25.62118309 17.36100382 22.61314419 16.42831963 17 18 C14.71012192 19.87217348 14.71012192 19.87217348 14.6875 22.875 C15.04220694 26.42206943 15.61429614 27.42839714 18 30 C20.47192304 31.32520759 20.47192304 31.32520759 23.1875 32.25 C24.08855469 32.58515625 24.98960938 32.9203125 25.91796875 33.265625 C26.60503906 33.50796875 27.29210937 33.7503125 28 34 C22.98136152 39.30541782 18.69799972 42.64179474 11.3359375 43.203125 C-0.24119457 43.38640414 -8.51037294 41.1438174 -17 33 C-19.50677004 30.08782241 -21 27.96933335 -21 24 C-19.64455078 23.92652344 -19.64455078 23.92652344 -18.26171875 23.8515625 C-17.08222656 23.77679688 -15.90273438 23.70203125 -14.6875 23.625 C-12.92986328 23.52058594 -12.92986328 23.52058594 -11.13671875 23.4140625 C-7.84300113 23.21386253 -7.84300113 23.21386253 -5 21 C-4.46926747 16.92789115 -4.46926747 16.92789115 -5 13 C-7.24305632 10.65713556 -8.55732464 10.04636963 -11.796875 9.70703125 C-13.25867187 9.75923828 -13.25867187 9.75923828 -14.75 9.8125 C-15.73484375 9.83957031 -16.7196875 9.86664063 -17.734375 9.89453125 C-18.48203125 9.92933594 -19.2296875 9.96414062 -20 10 C-15.4816489 4.22655137 -12.63380061 2.10563344 -5.25 0.875 C-4.26515625 0.70742188 -3.2803125 0.53984375 -2.265625 0.3671875 C-1.51796875 0.24601562 -0.7703125 0.12484375 0 0 Z " fill="#F4F4F4" transform="translate(57,37)"/>
<path d="M0 0 C0.19722656 0.96679688 0.19722656 0.96679688 0.3984375 1.953125 C0.82515791 4.19411623 0.82515791 4.19411623 3.0390625 5.421875 C4.31910156 6.07929688 4.31910156 6.07929688 5.625 6.75 C14.95524064 12.07396042 20.64109793 20.22299474 23.75 30.47265625 C26.59868907 42.95545351 24.70976026 54.22559934 20 66 C23.63 66 27.26 66 31 66 C31 66.66 31 67.32 31 68 C28 70 28 70 25 70 C25 70.66 25 71.32 25 72 C22 74 22 74 18.3125 75.125 C7.0229662 78.77803614 -3.42043683 85.00868429 -13.328125 91.43359375 C-15.64993755 92.79477333 -17.37407967 93.55609442 -20 94 C-19.52794881 89.75153925 -17.11122478 87.73180712 -14 85 C-13.34 85 -12.68 85 -12 85 C-12 84.34 -12 83.68 -12 83 C-8.34382315 79.62935315 -4.2499044 77.41074237 0.1875 75.25 C0.81591797 74.93417969 1.44433594 74.61835937 2.09179688 74.29296875 C6.73232887 72 6.73232887 72 9 72 C9 71.34 9 70.68 9 70 C12.465 69.01 12.465 69.01 16 68 C14.02 67.505 14.02 67.505 12 67 C12.33 65.02 12.66 63.04 13 61 C13.33 62.32 13.66 63.64 14 65 C16.27684284 64.13516593 16.27684284 64.13516593 17.0703125 61.40234375 C20.6927607 49.5019306 22.35105195 37.27738829 17.3359375 25.46875 C11.99227843 15.59391804 5.23257119 10.19111848 -5 6 C-4.67 4.68 -4.34 3.36 -4 2 C-5.2375 1.95875 -6.475 1.9175 -7.75 1.875 C-8.44609375 1.85179687 -9.1421875 1.82859375 -9.859375 1.8046875 C-12.02918654 1.87001447 -12.02918654 1.87001447 -13.875 2.94921875 C-16.64441528 4.31865388 -19.18961528 4.55676493 -22.25 4.9375 C-34.49458291 6.76667961 -41.99956967 11.45003802 -49.875 21.3125 C-55.49009651 29.97408505 -56.67455907 39.91133127 -57 50 C-56.34 50 -55.68 50 -55 50 C-54.67 49.01 -54.34 48.02 -54 47 C-53.67 47 -53.34 47 -53 47 C-52.93941406 48.02480469 -52.87882812 49.04960938 -52.81640625 50.10546875 C-52.73194974 51.46615695 -52.64730433 52.82683343 -52.5625 54.1875 C-52.52318359 54.86103516 -52.48386719 55.53457031 -52.44335938 56.22851562 C-52.21072435 59.89699102 -51.82792989 63.41694206 -51 67 C-49.68 67 -48.36 67 -47 67 C-47 65.35 -47 63.7 -47 62 C-45.68 62 -44.36 62 -43 62 C-41.5393715 64.64738916 -41 65.89448334 -41 69 C-37.35503155 67.73917581 -37.35503155 67.73917581 -34.4375 65.3125 C-33.963125 64.879375 -33.48875 64.44625 -33 64 C-31.01953125 64.1328125 -31.01953125 64.1328125 -29 65 C-27.953125 67.06640625 -27.953125 67.06640625 -27.25 69.5625 C-27.00765625 70.38878906 -26.7653125 71.21507813 -26.515625 72.06640625 C-26.34546875 72.70449219 -26.1753125 73.34257813 -26 74 C-22.98469174 72.99489725 -21.20348306 72.21620075 -19 69.875 C-17 68 -17 68 -14.25 67.75 C-13.5075 67.8325 -12.765 67.915 -12 68 C-11.505 71.96 -11.505 71.96 -11 76 C-11.99 76 -12.98 76 -14 76 C-14.66 75.01 -15.32 74.02 -16 73 C-17.299375 74.2684375 -17.299375 74.2684375 -18.625 75.5625 C-21.13199828 77.63684846 -21.78591366 77.98740669 -25.1875 78.1875 C-28 77 -28 77 -29.875 74.0625 C-31 71 -31 71 -31 69 C-31.86625 69.680625 -32.7325 70.36125 -33.625 71.0625 C-37 73 -37 73 -40.25 72.875 C-43 72 -43 72 -45 70 C-45.969375 70.185625 -46.93875 70.37125 -47.9375 70.5625 C-49.4534375 70.7790625 -49.4534375 70.7790625 -51 71 C-53.68598111 68.96736564 -54.63098803 66.84976884 -55.625 63.6875 C-56.00011719 62.49833984 -56.00011719 62.49833984 -56.3828125 61.28515625 C-57 59 -57 59 -57.5 55.625 C-57.73607494 52.96609046 -57.73607494 52.96609046 -59.5078125 51.61328125 C-61.9649328 48.95676113 -61.40047815 46.35579703 -61.2890625 42.88671875 C-59.97523207 29.76616889 -54.78473117 17.74853829 -44.7109375 9.015625 C-34.53229664 1.45434893 -11.83495553 -7.88997035 0 0 Z " fill="#E8EFED" transform="translate(79,18)"/>
<path d="M0 0 C8.03656569 8.32358589 10.02497245 21.77727509 10.1875 32.9375 C10.08716625 38.07960465 9.60994297 43.19467118 9.12109375 48.3125 C8.78270718 50.97126493 8.78270718 50.97126493 10 53 C10.375 56.3125 10.375 56.3125 10 60 C6.76519288 63.80403628 3.52160406 66.03661936 -0.9453125 68.19921875 C-2.09515625 68.76350586 -3.245 69.32779297 -4.4296875 69.90917969 C-5.03264648 70.1993396 -5.63560547 70.48949951 -6.25683594 70.78845215 C-8.79521987 72.01004112 -11.32269322 73.25343849 -13.85076904 74.4961853 C-15.12014656 75.12014864 -16.39004328 75.74305685 -17.66046143 76.36489868 C-22.82637444 78.8976793 -27.9239281 81.54279821 -33 84.25 C-34.4880247 85.03434108 -35.97630461 85.81819817 -37.46484375 86.6015625 C-39.84239424 87.85444735 -42.21430332 89.1158155 -44.57861328 90.39355469 C-47.23021129 91.82316238 -49.89484844 93.22562508 -52.5625 94.625 C-53.35978516 95.06360352 -54.15707031 95.50220703 -54.97851562 95.95410156 C-60.57650998 98.85130917 -65.6860506 100.07474677 -72 99 C-74 97 -74 97 -74.34765625 95.0078125 C-74.81795266 92.811974 -74.81795266 92.811974 -76.99609375 91.8046875 C-78.20458984 91.34449219 -78.20458984 91.34449219 -79.4375 90.875 C-83.832021 89.167979 -83.832021 89.167979 -86 87 C-85.01 86.505 -85.01 86.505 -84 86 C-82.01171875 86.7421875 -82.01171875 86.7421875 -79.6875 87.875 C-76.43516972 89.45422998 -73.61602764 90.64138838 -70 91 C-67.10604103 89.98943586 -67.10604103 89.98943586 -64.16796875 88.31640625 C-63.04753174 87.72230957 -61.92709473 87.12821289 -60.77270508 86.51611328 C-59.57757741 85.86501771 -58.38251023 85.21381109 -57.1875 84.5625 C-55.9600658 83.90712088 -54.73178883 83.25331776 -53.50268555 82.60107422 C-51.08465426 81.31707223 -48.6696716 80.02762298 -46.25683594 78.73388672 C-42.30702573 76.63107172 -38.32432095 74.60628058 -34.3125 72.625 C-33.69882568 72.32037842 -33.08515137 72.01575684 -32.45288086 71.7019043 C-31.24905585 71.10458408 -30.04487976 70.50797082 -28.84033203 69.91210938 C-26.85885241 68.93004412 -24.88027264 67.94232143 -22.90234375 66.953125 C-22.21454834 66.60967041 -21.52675293 66.26621582 -20.81811523 65.91235352 C-19.45731611 65.22978529 -18.09868004 64.54288464 -16.74243164 63.85131836 C-13.67866147 62.2955959 -10.65198894 60.85717687 -7.46875 59.55078125 C-1.52861875 57.10422795 -1.52861875 57.10422795 2.58984375 52.39453125 C8.56546484 36.63675464 6.89336239 19.31794527 0.36328125 4.02734375 C-0.08660156 3.02832031 -0.53648438 2.02929688 -1 1 C-0.67 0.67 -0.34 0.34 0 0 Z " fill="#010303" transform="translate(118,31)"/>
<path d="M0 0 C2.00720923 0.28674418 4.0085944 0.61866701 6 1 C5.67 1.66 5.34 2.32 5 3 C2.67843403 3.40729228 0.3431213 3.74438677 -2 4 C-2 4.66 -2 5.32 -2 6 C-2.79664063 6.38671875 -3.59328125 6.7734375 -4.4140625 7.171875 C-9.85949762 9.84822024 -15.01546082 12.54916518 -20 16 C-20.99 16.33 -21.98 16.66 -23 17 C-23 17.66 -23 18.32 -23 19 C-24.70940029 20.60228383 -26.53301528 22.01294742 -28.37109375 23.46484375 C-30.26558258 25.00756886 -30.26558258 25.00756886 -31 28 C-25.43262542 25.06016778 -19.99581169 22.04918987 -14.75 18.5625 C-10.40647093 15.75821294 -5.97956037 13.39164748 -1.3125 11.1875 C-0.40419434 10.75256226 -0.40419434 10.75256226 0.52246094 10.30883789 C4.95040479 8.27306371 9.27025563 7.06901609 14 6 C14 5.34 14 4.68 14 4 C15.98 3.34 17.96 2.68 20 2 C20 1.34 20 0.68 20 0 C20.66 0 21.32 0 22 0 C20.4787087 4.25961564 17.71137224 5.61911969 14 8 C13.05125 8.9075 12.1025 9.815 11.125 10.75 C6.0104835 15.17454961 -0.19191016 17.75170822 -6.23828125 20.65283203 C-9.54114924 22.26397291 -12.81794714 23.92464419 -16.09375 25.58984375 C-17.99150766 26.55142506 -19.8894933 27.51255524 -21.7875061 28.47363281 C-23.048597 29.11338441 -24.30884046 29.75480941 -25.56820679 30.39794922 C-27.35897712 31.3113726 -29.15403633 32.2163724 -30.94921875 33.12109375 C-31.99424561 33.6514624 -33.03927246 34.18183105 -34.1159668 34.72827148 C-36.78595446 35.90561557 -39.12596928 36.56646482 -42 37 C-40.6510267 32.01105966 -38.35992826 28.37440882 -35.1875 24.375 C-34.76146484 23.81554687 -34.33542969 23.25609375 -33.89648438 22.6796875 C-31.86452835 20.07288158 -29.87651177 17.90142294 -27.2890625 15.8359375 C-24.99878909 13.99902879 -24.17523193 12.95326633 -23.1875 10.25 C-22.795625 9.1775 -22.40375 8.105 -22 7 C-20.68 7.66 -19.36 8.32 -18 9 C-17.47792969 8.38511719 -16.95585938 7.77023438 -16.41796875 7.13671875 C-13.48990311 4.54923587 -11.06379019 3.84168936 -7.3125 2.8125 C-3.35039644 1.99051691 -3.35039644 1.99051691 0 0 Z " fill="#AFB8BE" transform="translate(90,84)"/>
<path d="M0 0 C0.495 1.98 0.495 1.98 1 4 C1.99 3.67 2.98 3.34 4 3 C4 3.66 4 4.32 4 5 C4.99 4.67 5.98 4.34 7 4 C8.89952346 4.08521741 10.79663573 4.23729084 12.6875 4.4375 C13.68136719 4.53933594 14.67523438 4.64117187 15.69921875 4.74609375 C16.45847656 4.82988281 17.21773437 4.91367188 18 5 C18 5.66 18 6.32 18 7 C15 9 15 9 12 9 C12 9.66 12 10.32 12 11 C9 13 9 13 5.3125 14.125 C-5.9770338 17.77803614 -16.42043683 24.00868429 -26.328125 30.43359375 C-28.64993755 31.79477333 -30.37407967 32.55609442 -33 33 C-32.52794881 28.75153925 -30.11122478 26.73180712 -27 24 C-26.34 24 -25.68 24 -25 24 C-25 23.34 -25 22.68 -25 22 C-21.34382315 18.62935315 -17.2499044 16.41074237 -12.8125 14.25 C-11.86987305 13.77626953 -11.86987305 13.77626953 -10.90820312 13.29296875 C-6.26767113 11 -6.26767113 11 -4 11 C-4 10.34 -4 9.68 -4 9 C-1.69 8.34 0.62 7.68 3 7 C1.68 6.67 0.36 6.34 -1 6 C-0.67 4.02 -0.34 2.04 0 0 Z " fill="#D1D6D9" transform="translate(92,79)"/>
<path d="M0 0 C0.99 0.66 1.98 1.32 3 2 C1.56354149 3.60509934 0.12579294 5.20904424 -1.3125 6.8125 C-2.11300781 7.70582031 -2.91351563 8.59914063 -3.73828125 9.51953125 C-5.45224581 11.39926786 -7.17877604 13.22592747 -9 15 C-8.67 15.99 -8.34 16.98 -8 18 C-4.04 17.505 -4.04 17.505 0 17 C0 16.34 0 15.68 0 15 C2.90600261 13.74335022 4.79604584 13 8 13 C8 12.34 8 11.68 8 11 C9.60032137 10.15930585 11.20541171 9.32768495 12.8125 8.5 C13.70582031 8.0359375 14.59914062 7.571875 15.51953125 7.09375 C18 6 18 6 21 6 C21.33 5.01 21.66 4.02 22 3 C25.75907641 1.37676246 28.92086213 0.76005071 33 1 C29.71043446 3.6737848 26.16628134 5.53065857 22.375 7.375 C20.95933452 8.0710029 19.54399495 8.76766892 18.12890625 9.46484375 C16.93418701 10.05241455 16.93418701 10.05241455 15.71533203 10.65185547 C12.58027294 12.20839173 9.45993168 13.79257809 6.33984375 15.37890625 C4.60178467 16.25893311 4.60178467 16.25893311 2.82861328 17.15673828 C0.50840838 18.33182331 -1.80967874 19.51110052 -4.12548828 20.69482422 C-5.20169434 21.23768066 -6.27790039 21.78053711 -7.38671875 22.33984375 C-8.34795654 22.82831787 -9.30919434 23.31679199 -10.29956055 23.82006836 C-12.89130601 24.95250718 -15.21408246 25.56738052 -18 26 C-16.6510267 21.01105966 -14.35992826 17.37440882 -11.1875 13.375 C-10.76146484 12.81554687 -10.33542969 12.25609375 -9.89648438 11.6796875 C-7.22852428 8.25694898 -4.37125526 5.6946508 -1 3 C-0.67 2.01 -0.34 1.02 0 0 Z " fill="#9DABB0" transform="translate(66,95)"/>
<path d="M0 0 C2.00720923 0.28674418 4.0085944 0.61866701 6 1 C5.67 1.66 5.34 2.32 5 3 C2.67843403 3.40729228 0.3431213 3.74438677 -2 4 C-2 4.66 -2 5.32 -2 6 C-3.91197039 6.70045456 -5.82980435 7.384919 -7.75 8.0625 C-8.81734375 8.44535156 -9.8846875 8.82820313 -10.984375 9.22265625 C-13.92280042 9.98010011 -15.22348948 10.07151741 -18 9 C-14.81156981 5.24473777 -12.02177679 4.10451883 -7.3125 2.8125 C-3.35039644 1.99051691 -3.35039644 1.99051691 0 0 Z " fill="#ABB3B8" transform="translate(90,84)"/>
<path d="M0 0 C-3.53611144 2.91209178 -7.47399694 4.86917425 -11.5625 6.875 C-12.62017578 7.39900391 -12.62017578 7.39900391 -13.69921875 7.93359375 C-19.40990862 10.7474064 -25.17408784 13.43264888 -31 16 C-31 15.01 -31 14.02 -31 13 C-29.02 12.67 -27.04 12.34 -25 12 C-25 11.34 -25 10.68 -25 10 C-23.39967863 9.15930585 -21.79458829 8.32768495 -20.1875 7.5 C-18.84751953 6.80390625 -18.84751953 6.80390625 -17.48046875 6.09375 C-15 5 -15 5 -12 5 C-11.67 4.01 -11.34 3.02 -11 2 C-7.24092359 0.37676246 -4.07913787 -0.23994929 0 0 Z " fill="#808B92" transform="translate(99,96)"/>
<path d="M0 0 C0.66 0.33 1.32 0.66 2 1 C-1.13725286 4.31652445 -4.08681731 6.69222559 -8 9 C-9.36984198 10.29579647 -10.7151049 11.61992749 -12 13 C-10.02 12.34 -8.04 11.68 -6 11 C-8.9901021 14.33511388 -11.89498574 16.21521119 -16 18 C-16.66 18 -17.32 18 -18 18 C-17.52794881 13.75153925 -15.11122478 11.73180712 -12 9 C-11.34 9 -10.68 9 -10 9 C-10 8.34 -10 7.68 -10 7 C-6.90871536 4.26200503 -3.67720457 1.88829424 0 0 Z " fill="#C8CDD1" transform="translate(77,94)"/>
<path d="M0 0 C1.953125 0.390625 3.90625 0.78125 5.859375 1.171875 C2.65534905 4.63575357 -1.02150872 6.35140187 -5.203125 8.421875 C-5.93595703 8.79828125 -6.66878906 9.1746875 -7.42382812 9.5625 C-9.2977452 10.49859815 -11.21690287 11.34293706 -13.140625 12.171875 C-13.800625 11.841875 -14.460625 11.511875 -15.140625 11.171875 C-14.53734375 10.71296875 -13.9340625 10.2540625 -13.3125 9.78125 C-12.11367187 8.86085938 -12.11367187 8.86085938 -10.890625 7.921875 C-10.10171875 7.31859375 -9.3128125 6.7153125 -8.5 6.09375 C-6.08878416 4.22926814 -6.08878416 4.22926814 -4.109375 1.921875 C-2.140625 0.171875 -2.140625 0.171875 0 0 Z " fill="#747C7F" transform="translate(114.140625,83.828125)"/>
<path d="M0 0 C3 0 3 0 5.1875 2 C5.785625 2.66 6.38375 3.32 7 4 C7 3.34 7 2.68 7 2 C7.99 2 8.98 2 10 2 C10 2.99 10 3.98 10 5 C10.763125 4.67 11.52625 4.34 12.3125 4 C15 3 15 3 18 3 C17.34 4.32 16.68 5.64 16 7 C13.89504036 6.93994409 11.79088565 6.85114641 9.6875 6.75 C8.51574219 6.70359375 7.34398437 6.6571875 6.13671875 6.609375 C3 6 3 6 1.08203125 4.078125 C0 2 0 2 0 0 Z " fill="#181818" transform="translate(51,64)"/>
<path d="M0 0 C2.20805524 -0.0544452 4.41650554 -0.09299283 6.625 -0.125 C7.85476562 -0.14820312 9.08453125 -0.17140625 10.3515625 -0.1953125 C13.94316041 -0.0030428 16.66661175 0.69741444 20 2 C20 2.66 20 3.32 20 4 C13.4 3.67 6.8 3.34 0 3 C0 2.01 0 1.02 0 0 Z " fill="#34AF8D" transform="translate(99,81)"/>
<path d="M0 0 C0 0.99 0 1.98 0 3 C-0.66 3 -1.32 3 -2 3 C-2 3.66 -2 4.32 -2 5 C-3.58199631 5.64910154 -5.16565724 6.29414694 -6.75 6.9375 C-7.63171875 7.29714844 -8.5134375 7.65679687 -9.421875 8.02734375 C-11.61186104 8.85356576 -13.71898271 9.49369943 -16 10 C-10.76441392 4.61898098 -7.37227301 1.84306825 0 0 Z " fill="#E4E6E8" transform="translate(92,90)"/>
<path d="M0 0 C1.67542976 0.28604898 3.34385343 0.61781233 5 1 C5.625 2.875 5.625 2.875 6 5 C5.34 5.66 4.68 6.32 4 7 C1.375 6.625 1.375 6.625 -1 6 C-1.042721 4.33388095 -1.04063832 2.66617115 -1 1 C-0.67 0.67 -0.34 0.34 0 0 Z " fill="#161616" transform="translate(59,57)"/>
<path d="M0 0 C0 0.66 0 1.32 0 2 C-5.16017278 4.98746845 -10.19834261 6.02541328 -16 7 C-13.75380873 4.49546085 -11.63373662 3.16425844 -8.5625 1.8125 C-7.41974609 1.29623047 -7.41974609 1.29623047 -6.25390625 0.76953125 C-4 0 -4 0 0 0 Z " fill="#D3D7DA" transform="translate(110,84)"/>
<path d="M0 0 C-2.51830747 3.12270126 -3.7261549 3.94523098 -7.75 4.75 C-9.35875 4.87375 -9.35875 4.87375 -11 5 C-7.7 0.23333333 -7.7 0.23333333 -4.375 -0.875 C-2 -1 -2 -1 0 0 Z " fill="#A0A8AE" transform="translate(83,89)"/>
<path d="M0 0 C2.0625 0.1875 2.0625 0.1875 4 1 C4.33 1.99 4.66 2.98 5 4 C3.02 4.66 1.04 5.32 -1 6 C-1.625 4.125 -1.625 4.125 -2 2 C-1.34 1.34 -0.68 0.68 0 0 Z " fill="#DDDDDD" transform="translate(76,57)"/>
<path d="M0 0 C0.99 0.66 1.98 1.32 3 2 C-0.33562767 6.51290803 -2.33289301 8.68206814 -8 10 C-3.25 4.125 -3.25 4.125 -1 3 C-0.67 2.01 -0.34 1.02 0 0 Z " fill="#8BA9A9" transform="translate(66,95)"/>
<path d="M0 0 C1.65 0 3.3 0 5 0 C5.33 0.99 5.66 1.98 6 3 C3.35261084 4.4606285 2.10551666 5 -1 5 C-0.67 3.35 -0.34 1.7 0 0 Z " fill="#E5E5E5" transform="translate(44,51)"/>
<path d="M0 0 C0.33 0.99 0.66 1.98 1 3 C-1.64 5.31 -4.28 7.62 -7 10 C-7.33 9.01 -7.66 8.02 -8 7 C-5.36 4.69 -2.72 2.38 0 0 Z " fill="#24B089" transform="translate(65,95)"/>
<path d="M0 0 C0.66 0 1.32 0 2 0 C1 3 1 3 -1.9375 4.6875 C-5 6 -5 6 -7 6 C-6.67 5.01 -6.34 4.02 -6 3 C-4.02 2.67 -2.04 2.34 0 2 C0 1.34 0 0.68 0 0 Z " fill="#959FA5" transform="translate(66,110)"/>
<path d="M0 0 C2.31 0 4.62 0 7 0 C4.82575883 2.50037734 3.26954202 3.43628586 0 4 C-0.33 3.34 -0.66 2.68 -1 2 C-0.67 1.34 -0.34 0.68 0 0 Z " fill="#6B7779" transform="translate(113,85)"/>
<path d="M0 0 C0.99 0.33 1.98 0.66 3 1 C-1.30769231 4.93846154 -1.30769231 4.93846154 -4.8125 5.25 C-5.534375 5.1675 -6.25625 5.085 -7 5 C-2.25 1.125 -2.25 1.125 0 0 Z " fill="#9CA5AC" transform="translate(101,91)"/>
<path d="M0 0 C-3.44450737 2.29633824 -5.93812283 2.54016485 -10 3 C-8 0 -8 0 -6.125 -0.75 C-3.80466218 -1.02298092 -2.21024918 -0.71043724 0 0 Z " fill="#C7CDD1" transform="translate(104,90)"/>
<path d="M0 0 C-0.33 0.99 -0.66 1.98 -1 3 C-2.84765625 3.73046875 -2.84765625 3.73046875 -5.0625 4.1875 C-5.79597656 4.34605469 -6.52945313 4.50460938 -7.28515625 4.66796875 C-8.13400391 4.83232422 -8.13400391 4.83232422 -9 5 C-6.45523312 2.20075644 -3.92372883 0 0 0 Z " fill="#E0E3E5" transform="translate(103,86)"/>
<path d="M0 0 C0.99 0 1.98 0 3 0 C5 3 5 3 5 6 C3.0625 5.25 3.0625 5.25 1 4 C0.25 1.875 0.25 1.875 0 0 Z " fill="#262626" transform="translate(51,64)"/>
<path d="" fill="#020907" transform="translate(0,0)"/>
<path d="" fill="#020907" transform="translate(0,0)"/>
<path d="" fill="#020907" transform="translate(0,0)"/>
<path d="" fill="#000100" transform="translate(0,0)"/>
<path d="" fill="#020907" transform="translate(0,0)"/>
<path d="" fill="#020907" transform="translate(0,0)"/>
<path d="" fill="#020907" transform="translate(0,0)"/>
<path d="" fill="#020907" transform="translate(0,0)"/>
</svg>
